<svg width="300" height="180" viewBox="-73 -19 300 180" fill="none" style="background-color: #F2F2F2;" xmlns="http://www.w3.org/2000/svg">
<path d="M142.137 80.2438L141.937 135.344C141.937 139.644 138.937 141.344 135.237 139.144L44.2371 86.6439C42.3041 85.3639 40.6951 83.6519 39.5371 81.6439C38.3791 79.6235 37.6951 77.3668 37.5371 75.0438L37.7371 19.9438L142.137 80.2438Z" fill="white"/>
<path d="M140.037 139.544L144.137 137.144C145.337 136.444 146.037 134.944 146.037 132.844L141.937 135.244C141.937 137.444 141.137 138.844 140.037 139.544Z" fill="#DCDCDC"/>
<path d="M142.137 80.2439L141.937 135.344L146.037 132.944L146.237 77.8439L142.137 80.2439Z" fill="#DCDCDC"/>
<path d="M135.437 55.9439C137.369 57.2242 138.978 58.9358 140.137 60.9439C141.294 62.9641 141.978 65.2209 142.137 67.5439V80.6439L37.6372 20.3439V7.24394C37.6372 2.94394 40.6372 1.24394 44.3372 3.34394L135.437 55.9439Z" fill="#F1F1F1"/>
<path d="M144.337 58.4439C143.149 56.4578 141.546 54.7521 139.637 53.4439L48.6368 0.943867C46.7368 -0.156133 45.0368 -0.256133 43.8368 0.443867L39.7368 2.84387C40.9368 2.14387 42.6368 2.24387 44.5368 3.34387L135.537 55.8439C137.469 57.1242 139.078 58.8358 140.237 60.8439C141.394 62.8641 142.078 65.1209 142.237 67.4439V80.5439L146.337 78.1439V65.0439C146.131 62.7298 145.45 60.483 144.337 58.4439Z" fill="#D2D2D2"/>
<path d="M80.637 59.0439C81.259 59.4479 81.774 59.9969 82.137 60.6439C82.503 61.2923 82.7411 62.0053 82.8371 62.7439C82.8371 64.2439 81.837 64.6439 80.637 64.0439L54.137 48.7439C53.482 48.3049 52.935 47.7238 52.537 47.0439C52.141 46.3783 51.934 45.618 51.937 44.8439C51.937 43.3439 52.937 42.9439 54.137 43.6439L80.637 59.0439ZM102.137 67.0439L103.937 70.2439L93.037 76.4439L88.537 68.6439L90.3371 67.5439L93.037 72.2439L102.137 67.0439Z" fill="#50E6FF"/>
<path d="M80.537 89.444C81.159 89.848 81.674 90.397 82.037 91.044C82.403 91.692 82.6409 92.405 82.7369 93.144C82.7369 94.644 81.737 95.044 80.537 94.444L54.037 79.1439C53.382 78.7049 52.8349 78.1238 52.4369 77.4439C52.0409 76.7783 51.8339 76.018 51.8369 75.2439C51.8369 73.7439 52.837 73.3439 54.037 74.0439L80.537 89.444ZM102.037 97.844L103.837 101.044L92.9369 107.244L88.4369 99.444L90.2369 98.344L92.9369 103.044L102.037 97.844Z" fill="#32B0E7"/>
<path d="M80.637 74.1439C81.259 74.5479 81.774 75.0969 82.137 75.7439C82.474 76.4049 82.7101 77.1128 82.8371 77.8439C82.8371 79.3439 81.837 79.7439 80.637 79.1439L54.137 63.8439C53.482 63.4049 52.935 62.8238 52.537 62.1439C52.141 61.4783 51.934 60.718 51.937 59.9439C51.937 58.4439 52.937 58.0439 54.137 58.7439L80.637 74.1439ZM102.137 82.044L103.937 85.244L93.037 91.444L88.3371 83.644L90.137 82.544L92.937 87.244L102.137 82.044Z" fill="#45CAF2"/>
<path d="M53.137 114.344C52.394 107.873 49.306 101.898 44.457 97.549C39.607 93.2 33.333 90.778 26.8196 90.741C20.3061 90.705 14.0048 93.055 9.10662 97.349C4.20852 101.642 1.05302 107.582 0.23662 114.044C0.0174202 114.994 -0.0500844 115.973 0.0366156 116.944C0.336616 120.644 3.03662 124.244 7.83662 127.144C18.3366 133.144 35.137 133.144 45.537 127.144C50.337 124.344 52.937 120.644 53.237 117.044C53.307 116.143 53.274 115.237 53.137 114.344Z" fill="url(#paint0_linear_15_13)"/>
<path d="M26.6364 87.944C29.8068 87.958 32.9078 87.017 35.5368 85.244C38.1648 83.489 40.2128 80.9942 41.4238 78.0751C42.6338 75.156 42.9518 71.9435 42.3368 68.8439C41.7298 65.7294 40.1968 62.8709 37.9368 60.6439C35.6698 58.4367 32.8288 56.9119 29.7368 56.2439C26.6478 55.6359 23.4486 55.9488 20.5364 57.1439C17.6217 58.3817 15.1229 60.4292 13.3364 63.0439C11.5499 65.6658 10.6078 68.7713 10.6364 71.9439C10.6285 74.0366 11.0364 76.1101 11.8364 78.0439C12.6588 79.9856 13.847 81.751 15.3364 83.244C16.8115 84.755 18.5815 85.946 20.5364 86.744C22.4702 87.544 24.5437 87.952 26.6364 87.944Z" fill="url(#paint1_linear_15_13)"/>
<path d="M145.796 63.1588C147.398 60.7943 152.028 61.0698 156.139 63.7729C160.247 66.4772 162.28 70.5864 160.676 72.9521C160.671 72.9605 160.662 72.9677 160.657 72.9762L155.285 80.9035L140.405 71.1102L145.796 63.1588Z" fill="#2195DC"/>
<path d="M141.496 69.5236C143.098 67.1591 147.728 67.4345 151.839 70.1377C155.947 72.842 157.98 76.9512 156.376 79.3169C156.371 79.3253 156.362 79.3325 156.357 79.3409L150.985 87.268L136.105 77.475L141.496 69.5236Z" fill="#32B0E7"/>
<path d="M123.83 117.509C125.631 119.278 125.929 124.05 124.325 126.416L106.586 136.717L109.448 116.621C110.57 114.968 113.9 112.612 116.767 113.467C118 113.835 122.776 116.474 123.83 117.509Z" fill="#32B0E7"/>
<path d="M110.075 131.567C111.162 132.281 111.698 133.369 111.276 133.992L106.587 136.715L107.345 131.403C107.764 130.781 108.988 130.853 110.075 131.567Z" fill="#0078D4"/>
<path d="M124.277 118.843L151.323 79.0922C152.956 81.248 153.472 83.541 152.436 85.095L124.325 126.416L123.563 124.269C122.923 122.462 123.187 120.448 124.277 118.843Z" fill="#45CAF2"/>
<path d="M143.673 74.0379L116.707 113.75C115.613 115.362 113.822 116.378 111.872 116.489L109.581 116.618L137.619 75.3254C138.679 73.7889 141.025 73.3786 143.673 74.0379Z" fill="#45CAF2"/>
<path d="M118.048 119.806C115.919 118.404 115.36 115.544 116.801 113.419L143.621 73.9924C145.011 74.3407 146.485 74.9809 147.897 75.9121C149.31 76.842 150.475 77.9371 151.333 79.0699L124.515 118.492C123.073 120.621 120.178 121.206 118.048 119.806Z" fill="#84ECFD"/>
<defs>
<linearGradient id="paint0_linear_15_13" x1="26.6198" y1="90.763" x2="26.6198" y2="131.636" gradientUnits="userSpaceOnUse">
<stop stop-color="#4DC2EB"/>
<stop offset="1" stop-color="#0078D4"/>
</linearGradient>
<linearGradient id="paint1_linear_15_13" x1="26.6258" y1="55.9464" x2="26.6258" y2="87.95" gradientUnits="userSpaceOnUse">
<stop stop-color="#4DC2EB"/>
<stop offset="1" stop-color="#0078D4"/>
</linearGradient>
</defs>
</svg>
