<svg width="14" height="14" viewBox="0 0 14 14" fill="none" xmlns="http://www.w3.org/2000/svg">
<path d="M3.82914 4.07769C4.402 4.07869 4.86721 3.61511 4.86822 3.04225C4.86922 2.46939 4.40564 2.00418 3.83278 2.00318C3.25991 2.00217 2.79471 2.46576 2.7937 3.03862C2.7927 3.61148 3.25628 4.07669 3.82914 4.07769Z" fill="black"/>
<path d="M7.2034 2.26839C7.20365 2.12518 7.08776 2.00887 6.94454 2.00862C6.80133 2.00837 6.68503 2.12427 6.68477 2.26748L6.66753 12.1214C6.66728 12.2646 6.78317 12.3809 6.92639 12.3812C7.0696 12.3814 7.1859 12.2655 7.18616 12.1223L7.2034 2.26839Z" fill="black"/>
<path d="M2.01011 6.26663C2.01187 5.26412 2.82598 4.45285 3.82848 4.45461C4.83099 4.45636 5.64226 5.27048 5.6405 6.27298L5.63649 8.56516C5.63599 8.85159 5.40339 9.08338 5.11696 9.08288L4.59833 9.08197L4.59347 11.8585C4.59297 12.1449 4.36037 12.3767 4.07393 12.3762L3.55531 12.3753C3.26888 12.3748 3.03709 12.1422 3.03759 11.8557L3.04245 9.07925L2.52382 9.07834C2.23739 9.07784 2.0056 8.84523 2.0061 8.5588L2.01011 6.26663Z" fill="black"/>
<path d="M8.67933 5.66727C8.68066 4.91022 9.29545 4.29758 10.0525 4.2989C10.8096 4.30023 11.4222 4.91502 11.4209 5.67207L11.4169 7.95574L12.2298 9.94972C12.2994 10.1205 12.1736 10.3073 11.9892 10.3069L10.8197 10.3049L10.817 11.8694C10.8165 12.1558 10.5839 12.3876 10.2975 12.3871L9.77884 12.3862C9.49241 12.3857 9.26062 12.1531 9.26112 11.8666L9.26386 10.3022L8.09448 10.3001C7.9101 10.2998 7.78495 10.1126 7.85515 9.94207L8.67534 7.95011L8.67933 5.66727Z" fill="black"/>
<path d="M10.0534 3.84176C10.5582 3.84264 10.968 3.43422 10.9689 2.92951C10.9698 2.42481 10.5614 2.01495 10.0566 2.01407C9.55195 2.01319 9.14209 2.42161 9.1412 2.92632C9.14032 3.43102 9.54875 3.84088 10.0534 3.84176Z" fill="black"/>
</svg>