<svg width="300" height="180" viewBox="-63 -19 300 180" fill="none" style="background-color: #F2F2F2;" xmlns="http://www.w3.org/2000/svg">
<path d="M142.7 81.2L142.5 136.3C142.5 140.6 139.5 142.3 135.8 140.1L44.8001 87.6C42.8675 86.3197 41.2585 84.6081 40.1001 82.6C38.9425 80.5798 38.2586 78.323 38.1001 76L38.3001 20.9L142.7 81.2Z" fill="white"/>
<path d="M140.6 140.5L144.7 138.1C145.9 137.4 146.6 135.9 146.6 133.8L142.5 136.2C142.5 138.4 141.7 139.8 140.6 140.5Z" fill="#DCDCDC"/>
<path d="M142.7 81.2L142.5 136.3L146.6 133.9L146.8 78.8L142.7 81.2Z" fill="#DCDCDC"/>
<path d="M136 56.9C137.933 58.1803 139.542 59.8919 140.7 61.9C141.858 63.9203 142.542 66.177 142.7 68.5V81.6L38.2002 21.3V8.2C38.2002 3.9 41.2002 2.19999 44.9002 4.29999L136 56.9Z" fill="#F0F0F0"/>
<path d="M144.9 59.4C143.712 57.4139 142.109 55.7083 140.2 54.4L49.1998 1.90004C47.2998 0.800044 45.5998 0.700044 44.3998 1.40004L40.2998 3.80004C41.4998 3.10004 43.1998 3.20004 45.0998 4.30004L136.1 56.8C138.032 58.0804 139.641 59.792 140.8 61.8C141.957 63.8203 142.641 66.077 142.8 68.4V68.4V81.5L146.9 79.1V66C146.694 63.686 146.013 61.4392 144.9 59.4V59.4Z" fill="#D2D2D2"/>
<path d="M81.2 60C81.8222 60.404 82.3369 60.953 82.7 61.6C83.0663 62.2484 83.304 62.9614 83.4 63.7C83.4 65.2 82.4 65.6 81.2 65L54.7 49.7C54.0455 49.261 53.4985 48.6799 53.1 48C52.7048 47.3344 52.4974 46.5741 52.5 45.8C52.5 44.3 53.5 43.9 54.7 44.6L81.2 60ZM102.7 68L104.5 71.2L93.6 77.4L89.1 69.6L90.9 68.5L93.6 73.2L102.7 68Z" fill="#50E6FF"/>
<path d="M81.0999 90.4C81.7221 90.804 82.2369 91.3531 82.5999 92C82.9662 92.6484 83.2039 93.3615 83.2999 94.1C83.2999 95.6 82.2999 96 81.0999 95.4L54.5999 80.1C53.9454 79.661 53.3984 79.0799 52.9999 78.4C52.6047 77.7344 52.3973 76.9741 52.3999 76.2C52.3999 74.7 53.3999 74.3 54.5999 75L81.0999 90.4ZM102.6 98.8L104.4 102L93.4999 108.2L88.9999 100.4L90.7999 99.3L93.4999 104L102.6 98.8Z" fill="#32B0E7"/>
<path d="M81.2 75.1001C81.8222 75.5041 82.3369 76.0531 82.7 76.7001C83.037 77.3611 83.273 78.069 83.4 78.8001C83.4 80.3001 82.4 80.7001 81.2 80.1001L54.7 64.8001C54.0455 64.3611 53.4985 63.78 53.1 63.1001C52.7048 62.4345 52.4974 61.6742 52.5 60.9001C52.5 59.4001 53.5 59.0001 54.7 59.7001L81.2 75.1001ZM102.7 83.0001L104.5 86.2001L93.6 92.4001L88.9 84.6001L90.7 83.5001L93.5 88.2001L102.7 83.0001Z" fill="#45CAF2"/>
<path d="M53.7001 115.3C52.9571 108.829 49.8692 102.854 45.02 98.5053C40.1709 94.1563 33.8966 91.7345 27.3831 91.6976C20.8696 91.6606 14.5682 94.0111 9.67012 98.3048C4.77199 102.598 1.6165 108.538 0.800119 115C0.580878 115.95 0.513376 116.929 0.600118 117.9C0.900118 121.6 3.60012 125.2 8.40012 128.1C18.9001 134.1 35.7001 134.1 46.1001 128.1C50.9001 125.3 53.5001 121.6 53.8001 118C53.8709 117.099 53.8373 116.193 53.7001 115.3Z" fill="url(#paint0_linear_15_13)"/>
<path d="M27.1999 88.9C30.3703 88.9139 33.4715 87.9731 36.0999 86.2C38.7279 84.4451 40.7766 81.9504 41.9869 79.0313C43.1973 76.1121 43.515 72.8997 42.8999 69.8C42.2937 66.6855 40.7599 63.8271 38.4999 61.6C36.2336 59.3929 33.392 57.8681 30.2999 57.2C27.2113 56.592 24.0121 56.905 21.0999 58.1C18.1851 59.3378 15.6864 61.3854 13.8999 64C12.1134 66.622 11.1713 69.7275 11.1999 72.9C11.1919 74.9928 11.5998 77.0662 12.3999 79C13.2222 80.9418 14.4105 82.7072 15.8999 84.2C17.3749 85.7109 19.1449 86.9022 21.0999 87.7C23.0336 88.5001 25.1071 88.908 27.1999 88.9Z" fill="url(#paint1_linear_15_13)"/>
<path d="M167.86 58.2922L167.68 97.5422V110.692L121.94 84.3922L122.12 31.9922L133.42 38.4722L167.86 58.2922Z" fill="url(#paint2_linear_15_13)"/>
<path d="M122.121 31.9922L133.421 38.4722L167.681 58.2922L171.751 56.0622L137.311 36.0622L126.011 29.5822L122.121 31.9922Z" fill="#2195DC"/>
<path d="M167.681 110.692L171.561 108.282L171.751 56.0621L167.681 58.2921V110.692Z" fill="#0078D4"/>
<path d="M143.6 72.9921V86.6921L146.2 88.1721V74.4721L158.05 81.3221V78.5421L146.2 71.5421V57.8021L143.6 56.3221V70.0322L131.75 63.1721V66.1721L143.6 72.9921Z" fill="white" stroke="white" stroke-width="1.85" stroke-miterlimit="10"/>
<defs>
<linearGradient id="paint0_linear_15_13" x1="27.1833" y1="91.7191" x2="27.1833" y2="132.592" gradientUnits="userSpaceOnUse">
<stop stop-color="#4DC2EB"/>
<stop offset="1" stop-color="#0078D4"/>
</linearGradient>
<linearGradient id="paint1_linear_15_13" x1="27.1893" y1="56.9025" x2="27.1893" y2="88.9059" gradientUnits="userSpaceOnUse">
<stop stop-color="#4DC2EB"/>
<stop offset="1" stop-color="#0078D4"/>
</linearGradient>
<linearGradient id="paint2_linear_15_13" x1="146.53" y1="32.5322" x2="142.84" y2="120.582" gradientUnits="userSpaceOnUse">
<stop stop-color="#32B0E7"/>
<stop offset="1" stop-color="#2195DC"/>
</linearGradient>
</defs>
</svg>
